<svg width="40" height="40" viewBox="0 0 40 40" fill="none" xmlns="http://www.w3.org/2000/svg">
<rect width="40" height="40" rx="10" fill="#4A605E"/>
<path d="M22.8234 10.4L24.6537 15.3462L29.5999 17.1765L24.6537 19.0068L22.8234 23.953L20.9932 19.0068L16.047 17.1765L20.9932 15.3462L22.8234 10.4Z" fill="white"/>
<path d="M14.3528 21.6941L15.9517 24.0483L18.3058 25.6471L15.9517 27.2459L14.3528 29.6L12.754 27.2459L10.3999 25.6471L12.754 24.0483L14.3528 21.6941Z" fill="white"/>
<path d="M22.8234 10.4L24.6537 15.3462L29.5999 17.1765L24.6537 19.0068L22.8234 23.953L20.9932 19.0068L16.047 17.1765L20.9932 15.3462L22.8234 10.4Z" stroke="white" stroke-width="2" stroke-linejoin="round"/>
<path d="M14.3528 21.6941L15.9517 24.0483L18.3058 25.6471L15.9517 27.2459L14.3528 29.6L12.754 27.2459L10.3999 25.6471L12.754 24.0483L14.3528 21.6941Z" stroke="white" stroke-width="2" stroke-linejoin="round"/>
</svg>
