<svg width="40" height="40" viewBox="0 0 40 40" fill="none" xmlns="http://www.w3.org/2000/svg">
<rect width="40" height="40" rx="10" fill="#4A605E"/>
<path d="M15.2 29.6C13.8746 29.6 12.8 28.5255 12.8 27.2V12.8C12.8 11.4745 13.8746 10.4 15.2001 10.4L24.8001 10.4C26.1255 10.4 27.2 11.4745 27.2 12.8V27.2C27.2 28.5255 26.1255 29.6 24.8 29.6H15.2Z" fill="white"/>
<path d="M16.4 11.6L18 14H22L23.6 11.6M12.8 12.8V27.2C12.8 28.5255 13.8746 29.6 15.2 29.6H24.8C26.1255 29.6 27.2 28.5255 27.2 27.2V12.8C27.2 11.4745 26.1255 10.4 24.8001 10.4L15.2001 10.4C13.8746 10.4 12.8 11.4745 12.8 12.8Z" stroke="#4A605E" stroke-width="2" stroke-linecap="round" stroke-linejoin="round"/>
</svg>
