<svg width="40" height="40" viewBox="0 0 40 40" fill="none" xmlns="http://www.w3.org/2000/svg">
<rect width="40" height="40" rx="10" fill="#4A605E"/>
<path d="M20 10.4C16.6863 10.4 14 13.0863 14 16.4C14 18.8604 15.4809 20.9749 17.6 21.9008V25.4C17.6 26.0628 18.1373 26.6 18.8 26.6H21.2C21.8627 26.6 22.4 26.0628 22.4 25.4V21.8C24.5191 20.8742 26 18.8604 26 16.4C26 13.0863 23.3137 10.4 20 10.4Z" fill="white"/>
<path d="M17.6 29.6H22.4M14 16.4C14 13.0863 16.6863 10.4 20 10.4C23.3137 10.4 26 13.0863 26 16.4C26 18.8604 24.5191 20.8742 22.4 21.8V25.4C22.4 26.0628 21.8627 26.6 21.2 26.6H18.8C18.1373 26.6 17.6 26.0628 17.6 25.4V21.9008C15.4809 20.9749 14 18.8604 14 16.4Z" stroke="white" stroke-width="2" stroke-linecap="round" stroke-linejoin="round"/>
</svg>
