<svg width="102" height="53" viewBox="0 0 102 53" fill="none" xmlns="http://www.w3.org/2000/svg">
<path d="M23.5957 5.60156V5.64062C23.5957 5.71224 23.5827 5.77409 23.5566 5.82617C22.9837 6.97201 22.1927 8.50521 21.1836 10.4258C20.181 12.3398 19.0352 14.4362 17.7461 16.7148C16.4635 18.987 15.1191 21.2298 13.7129 23.4434C12.3132 25.6504 10.9297 27.6165 9.5625 29.3418C8.19531 31.0736 6.92578 32.3496 5.75391 33.1699C5.19401 33.5345 4.5625 33.7396 3.85938 33.7852C3.75521 33.7917 3.65104 33.7949 3.54688 33.7949C2.96745 33.7949 2.41406 33.6615 1.88672 33.3945C1.35938 33.1276 1.01432 32.6654 0.851562 32.0078C0.799479 31.7279 0.773438 31.4382 0.773438 31.1387C0.773438 30.3118 1.01758 29.3451 1.50586 28.2383C1.98763 27.138 2.7526 25.9466 3.80078 24.6641C4.85547 23.3815 6.01758 22.1934 7.28711 21.0996C8.55664 19.9993 9.80013 19.0846 11.0176 18.3555C12.2415 17.6263 13.2995 17.1836 14.1914 17.0273C14.5495 16.9622 14.8132 16.9297 14.9824 16.9297C15.0215 16.9297 15.0573 16.9329 15.0898 16.9395C15.194 16.9525 15.2461 16.9785 15.2461 17.0176C15.2461 17.0371 15.2201 17.0762 15.168 17.1348C15.1224 17.1868 14.9987 17.265 14.7969 17.3691C14.5951 17.4733 14.3672 17.5742 14.1133 17.6719C13.1953 18.0365 12.0918 18.7005 10.8027 19.6641C9.52018 20.6211 8.23438 21.7637 6.94531 23.0918C5.66276 24.4134 4.5625 25.7969 3.64453 27.2422C2.73307 28.6875 2.18945 30.0775 2.01367 31.4121C1.98112 31.653 1.96484 31.8646 1.96484 32.0469C1.96484 32.3984 2.02669 32.6426 2.15039 32.7793C2.22201 32.8639 2.32943 32.9062 2.47266 32.9062C2.70703 32.9062 3.03581 32.7956 3.45898 32.5742C4.68945 31.9167 5.96875 30.8229 7.29688 29.293C8.625 27.763 9.95964 25.9727 11.3008 23.9219C12.6419 21.8711 13.944 19.7389 15.207 17.5254C16.4701 15.3118 17.6517 13.1992 18.752 11.1875C19.8848 9.11719 20.8841 7.3431 21.75 5.86523C21.6979 5.87174 21.6491 5.87826 21.6035 5.88477C19.0514 6.27539 16.6458 6.73763 14.3867 7.27148C12.1341 7.80534 10.4284 8.33268 9.26953 8.85352C9.15885 8.89909 9.06445 8.92188 8.98633 8.92188C8.86914 8.92188 8.77799 8.87956 8.71289 8.79492C8.63477 8.70378 8.5957 8.5931 8.5957 8.46289C8.5957 8.39128 8.61523 8.2806 8.6543 8.13086C8.69987 7.97461 8.85612 7.82487 9.12305 7.68164C10.36 7.10872 12.1113 6.56836 14.377 6.06055C16.6426 5.55273 19.0449 5.13932 21.584 4.82031C24.0645 4.51432 26.3008 4.36133 28.293 4.36133C28.3385 4.36133 28.8757 4.36458 29.9043 4.37109C30.9395 4.37109 31.8346 4.59896 32.5898 5.05469C32.7005 5.13281 32.8145 5.23372 32.9316 5.35742C33.0488 5.47461 33.1335 5.57878 33.1855 5.66992C33.2051 5.70898 33.2148 5.73828 33.2148 5.75781C33.2148 5.79688 33.1888 5.81641 33.1367 5.81641C33.0586 5.81641 32.8861 5.73828 32.6191 5.58203C32.0397 5.28255 31.0371 5.13281 29.6113 5.13281C29.2598 5.13281 28.8822 5.14258 28.4785 5.16211C26.9876 5.22721 25.36 5.3737 23.5957 5.60156ZM21.3691 20.4648C20.6595 21.3828 20.2298 22.1217 20.0801 22.6816C20.0605 22.7598 20.0508 22.8184 20.0508 22.8574C20.0508 22.877 20.054 22.8932 20.0605 22.9062C20.0801 22.9323 20.1191 22.9453 20.1777 22.9453L20.2559 22.9355C20.8158 22.8509 21.4831 22.6003 22.2578 22.1836C23.0326 21.7669 23.8236 21.2852 24.6309 20.7383C25.4382 20.1914 26.1673 19.6836 26.8184 19.2148C27.0007 19.0846 27.1732 18.9609 27.3359 18.8438C27.707 18.5898 27.9414 18.4629 28.0391 18.4629C28.0716 18.4629 28.0879 18.4792 28.0879 18.5117V18.5996C28.0814 18.6647 27.9056 18.8796 27.5605 19.2441C26.7142 20.097 25.666 20.9857 24.416 21.9102C23.166 22.8346 22.0918 23.4857 21.1934 23.8633C20.8874 23.974 20.64 24.0326 20.4512 24.0391H20.4023C20.2266 24.0391 20.0671 24.0065 19.9238 23.9414C19.6113 23.8112 19.3477 23.6061 19.1328 23.3262C18.918 23.0462 18.765 22.7435 18.6738 22.418C18.6608 22.3529 18.6543 22.2812 18.6543 22.2031C18.6543 21.7799 18.8691 21.207 19.2988 20.4844C19.735 19.7617 20.2917 19.0293 20.9688 18.2871C21.6458 17.5384 22.2546 17.0046 22.7949 16.6855C23.1074 16.5163 23.3874 16.4316 23.6348 16.4316C23.6934 16.4316 23.752 16.4382 23.8105 16.4512C24.097 16.4967 24.3444 16.6172 24.5527 16.8125C24.9694 17.2096 25.1777 17.6003 25.1777 17.9844C25.1777 18.0951 25.1289 18.3001 25.0312 18.5996C24.9401 18.8991 24.6374 19.2376 24.123 19.6152C23.6087 19.9928 23.0781 20.2663 22.5312 20.4355C22.2448 20.5202 22.0007 20.5625 21.7988 20.5625C21.623 20.5625 21.4798 20.5299 21.3691 20.4648ZM24.5137 17.8867C24.5202 17.8672 24.5234 17.8444 24.5234 17.8184C24.5234 17.7858 24.5137 17.7467 24.4941 17.7012C24.4746 17.6556 24.4388 17.6165 24.3867 17.584C24.3607 17.571 24.3346 17.5645 24.3086 17.5645C24.2826 17.5645 24.2533 17.571 24.2207 17.584C23.9212 17.7467 23.5566 18.0365 23.127 18.4531C22.6973 18.8698 22.2676 19.3451 21.8379 19.8789C22.0332 19.7812 22.3262 19.612 22.7168 19.3711C23.1139 19.1302 23.4915 18.873 23.8496 18.5996C24.2077 18.3262 24.429 18.0885 24.5137 17.8867ZM30.4805 16.0605C30.3568 16.2168 30.1745 16.4284 29.9336 16.6953C29.8034 16.8451 29.6634 17.0046 29.5137 17.1738C29.0645 17.6751 28.6966 18.1178 28.4102 18.502C28.2734 18.7233 28.2051 18.9642 28.2051 19.2246C28.2051 19.4199 28.2637 19.6999 28.3809 20.0645C28.5046 20.4225 28.6999 20.8392 28.9668 21.3145C29.8392 20.7611 30.7148 20.2467 31.5938 19.7715C32.4727 19.2897 33.3158 18.8958 34.123 18.5898C34.2728 18.5378 34.377 18.5117 34.4355 18.5117H34.4648C34.4909 18.5182 34.5039 18.5312 34.5039 18.5508C34.5039 18.5638 34.4974 18.5833 34.4844 18.6094C34.4388 18.6875 34.2305 18.86 33.8594 19.127C32.9479 19.7715 32.0299 20.3997 31.1055 21.0117C30.5065 21.4089 29.9076 21.8125 29.3086 22.2227C29.3346 22.3854 29.3477 22.5514 29.3477 22.7207C29.3477 23.2546 29.1914 23.8503 28.8789 24.5078C28.5729 25.1719 28.1042 25.8359 27.4727 26.5C26.8411 27.1706 26.1608 27.7305 25.4316 28.1797C24.696 28.6289 24.0059 28.8926 23.3613 28.9707C23.2637 28.9837 23.1693 28.9902 23.0781 28.9902C22.5638 28.9902 22.1504 28.8079 21.8379 28.4434C21.5905 28.1764 21.4668 27.8965 21.4668 27.6035C21.4668 27.5124 21.5026 27.3431 21.5742 27.0957C21.6393 26.8548 22.0853 26.3958 22.9121 25.7188C24.4876 24.3971 26.1413 23.1602 27.873 22.0078C27.9121 21.9818 27.9544 21.9557 28 21.9297C28.0781 21.8776 28.153 21.8288 28.2246 21.7832C28.2181 21.5098 28.1693 21.2331 28.0781 20.9531C27.9674 20.6341 27.7819 20.2663 27.5215 19.8496C27.4759 19.765 27.4238 19.6738 27.3652 19.5762C27.0527 19.0488 26.8965 18.5605 26.8965 18.1113C26.8965 17.9876 26.9323 17.763 27.0039 17.4375C27.0755 17.1055 27.4043 16.6628 27.9902 16.1094C28.0358 16.0573 28.0944 15.9987 28.166 15.9336C28.3678 15.7253 28.5957 15.5039 28.8496 15.2695C29.11 15.0286 29.3379 14.8626 29.5332 14.7715C29.5788 14.752 29.6211 14.7422 29.6602 14.7422C29.6797 14.7422 29.7057 14.7487 29.7383 14.7617C29.7773 14.7682 29.8294 14.8008 29.8945 14.8594C29.9727 14.9245 30.054 15.0026 30.1387 15.0938C30.2298 15.1849 30.3079 15.2695 30.373 15.3477C30.4382 15.4193 30.487 15.4779 30.5195 15.5234C30.5586 15.569 30.5846 15.6113 30.5977 15.6504C30.6172 15.6764 30.627 15.7057 30.627 15.7383C30.627 15.7578 30.6237 15.7871 30.6172 15.8262C30.6107 15.8652 30.5651 15.9434 30.4805 16.0605ZM27.9609 23.1699C27.0495 23.8275 26.1283 24.5501 25.1973 25.3379C24.2663 26.1322 23.459 26.9297 22.7754 27.7305C23.3743 27.4831 24.0189 27.1315 24.709 26.6758C25.3991 26.2266 26.0371 25.7025 26.623 25.1035C27.2155 24.5046 27.6615 23.86 27.9609 23.1699ZM39.3086 17.9648C39.4909 18.1016 39.6081 18.2578 39.6602 18.4336C39.6797 18.4922 39.6895 18.5605 39.6895 18.6387C39.6895 18.7819 39.6569 18.9544 39.5918 19.1562C39.4225 19.7422 39.2337 20.276 39.0254 20.7578C38.8366 21.2005 38.6641 21.679 38.5078 22.1934C38.4818 22.265 38.4688 22.3203 38.4688 22.3594C38.4688 22.3789 38.472 22.3984 38.4785 22.418C38.4915 22.4375 38.5241 22.4473 38.5762 22.4473C38.7259 22.4473 39.1198 22.2194 39.7578 21.7637C40.3958 21.3079 41.0534 20.8197 41.7305 20.2988C42.4141 19.7715 42.9316 19.3646 43.2832 19.0781C43.6543 18.7852 43.9049 18.6289 44.0352 18.6094H44.0547C44.0742 18.6094 44.084 18.6191 44.084 18.6387C44.084 18.7038 43.944 18.8958 43.6641 19.2148C43.2604 19.6771 42.6973 20.2533 41.9746 20.9434C41.252 21.6335 40.5521 22.2552 39.875 22.8086C39.2044 23.3555 38.7324 23.6517 38.459 23.6973H38.3613C38.153 23.6973 37.9544 23.6452 37.7656 23.541C37.362 23.3132 37.1211 23.0658 37.043 22.7988C37.0169 22.7012 37.0039 22.5905 37.0039 22.4668C37.0039 22.252 37.0462 21.9948 37.1309 21.6953C37.2611 21.2331 37.4368 20.7383 37.6582 20.2109C37.8796 19.6836 38.0684 19.2572 38.2246 18.9316C37.6517 19.6999 36.9551 20.5234 36.1348 21.4023C35.3145 22.2812 34.5104 22.9974 33.7227 23.5508C33.7161 23.5508 33.7129 23.554 33.7129 23.5605C33.5241 23.6973 33.3223 23.7949 33.1074 23.8535C33.0618 23.8665 33.0163 23.873 32.9707 23.873C32.7884 23.873 32.5931 23.7852 32.3848 23.6094C32.0723 23.3229 31.916 23.0104 31.916 22.6719C31.916 22.5872 31.9421 22.4147 31.9941 22.1543C32.0462 21.8939 32.2253 21.4967 32.5312 20.9629L35.0215 16.2852C35.1061 16.1289 35.1842 16.0215 35.2559 15.9629C35.3275 15.8978 35.3893 15.8587 35.4414 15.8457C35.4674 15.8392 35.4902 15.8359 35.5098 15.8359C35.5358 15.8359 35.5553 15.8392 35.5684 15.8457C35.6595 15.8652 35.7799 15.9434 35.9297 16.0801C36.0794 16.2168 36.2129 16.3698 36.3301 16.5391C36.4408 16.6953 36.4961 16.8158 36.4961 16.9004V16.9199C36.4831 17.0436 36.3659 17.2975 36.1445 17.6816C36.0664 17.8053 35.8906 18.1113 35.6172 18.5996C35.3438 19.0814 35.0443 19.6185 34.7188 20.2109C34.3932 20.7969 34.1133 21.3145 33.8789 21.7637C33.6641 22.1868 33.5566 22.4408 33.5566 22.5254V22.5352C33.5632 22.5417 33.5762 22.5449 33.5957 22.5449C33.7064 22.5449 33.9896 22.3073 34.4453 21.832C34.901 21.3568 35.4219 20.7741 36.0078 20.084C36.5938 19.3939 37.0885 18.8047 37.4922 18.3164C37.9089 17.7956 38.2344 17.5352 38.4688 17.5352C38.7031 17.5286 38.9831 17.6719 39.3086 17.9648ZM46.6133 16.0605C46.4896 16.2168 46.3073 16.4284 46.0664 16.6953C45.9362 16.8451 45.7962 17.0046 45.6465 17.1738C45.1973 17.6751 44.8294 18.1178 44.543 18.502C44.4062 18.7233 44.3379 18.9642 44.3379 19.2246C44.3379 19.4199 44.3965 19.6999 44.5137 20.0645C44.6374 20.4225 44.8327 20.8392 45.0996 21.3145C45.972 20.7611 46.8477 20.2467 47.7266 19.7715C48.6055 19.2897 49.4486 18.8958 50.2559 18.5898C50.4056 18.5378 50.5098 18.5117 50.5684 18.5117H50.5977C50.6237 18.5182 50.6367 18.5312 50.6367 18.5508C50.6367 18.5638 50.6302 18.5833 50.6172 18.6094C50.5716 18.6875 50.3633 18.86 49.9922 19.127C49.0807 19.7715 48.1628 20.3997 47.2383 21.0117C46.6393 21.4089 46.0404 21.8125 45.4414 22.2227C45.4674 22.3854 45.4805 22.5514 45.4805 22.7207C45.4805 23.2546 45.3242 23.8503 45.0117 24.5078C44.7057 25.1719 44.237 25.8359 43.6055 26.5C42.974 27.1706 42.2936 27.7305 41.5645 28.1797C40.8288 28.6289 40.1387 28.8926 39.4941 28.9707C39.3965 28.9837 39.3021 28.9902 39.2109 28.9902C38.6966 28.9902 38.2832 28.8079 37.9707 28.4434C37.7233 28.1764 37.5996 27.8965 37.5996 27.6035C37.5996 27.5124 37.6354 27.3431 37.707 27.0957C37.7721 26.8548 38.2181 26.3958 39.0449 25.7188C40.6204 24.3971 42.2741 23.1602 44.0059 22.0078C44.0449 21.9818 44.0872 21.9557 44.1328 21.9297C44.2109 21.8776 44.2858 21.8288 44.3574 21.7832C44.3509 21.5098 44.3021 21.2331 44.2109 20.9531C44.1003 20.6341 43.9147 20.2663 43.6543 19.8496C43.6087 19.765 43.5566 19.6738 43.498 19.5762C43.1855 19.0488 43.0293 18.5605 43.0293 18.1113C43.0293 17.9876 43.0651 17.763 43.1367 17.4375C43.2083 17.1055 43.5371 16.6628 44.123 16.1094C44.1686 16.0573 44.2272 15.9987 44.2988 15.9336C44.5007 15.7253 44.7285 15.5039 44.9824 15.2695C45.2428 15.0286 45.4707 14.8626 45.666 14.7715C45.7116 14.752 45.7539 14.7422 45.793 14.7422C45.8125 14.7422 45.8385 14.7487 45.8711 14.7617C45.9102 14.7682 45.9622 14.8008 46.0273 14.8594C46.1055 14.9245 46.1868 15.0026 46.2715 15.0938C46.3626 15.1849 46.4408 15.2695 46.5059 15.3477C46.571 15.4193 46.6198 15.4779 46.6523 15.5234C46.6914 15.569 46.7174 15.6113 46.7305 15.6504C46.75 15.6764 46.7598 15.7057 46.7598 15.7383C46.7598 15.7578 46.7565 15.7871 46.75 15.8262C46.7435 15.8652 46.6979 15.9434 46.6133 16.0605ZM44.0938 23.1699C43.1823 23.8275 42.2611 24.5501 41.3301 25.3379C40.3991 26.1322 39.5918 26.9297 38.9082 27.7305C39.5072 27.4831 40.1517 27.1315 40.8418 26.6758C41.5319 26.2266 42.1699 25.7025 42.7559 25.1035C43.3483 24.5046 43.7943 23.86 44.0938 23.1699ZM67.5605 5.99219L55.5879 6.31445C55.2168 6.26237 55.0312 6.13542 55.0312 5.93359L55.041 5.77734C55.0475 5.66667 55.1517 5.51042 55.3535 5.30859C55.5618 5.10677 55.7507 5.00586 55.9199 5.00586L80.3438 4.9375C80.5911 4.9375 80.7311 4.99609 80.7637 5.11328C80.7702 5.13932 80.7734 5.16536 80.7734 5.19141C80.7734 5.28906 80.7311 5.38997 80.6465 5.49414C80.5684 5.5918 80.4609 5.64714 80.3242 5.66016L69.0352 5.95312C69.1328 6.03125 69.1882 6.1224 69.2012 6.22656V6.26562C69.2012 6.36328 69.1556 6.49674 69.0645 6.66602C66.4147 11.4772 63.6478 16.3535 60.7637 21.2949C58.4134 25.3379 56.1413 29.3223 53.9473 33.248C53.8105 33.4759 53.6706 33.6126 53.5273 33.6582C53.4688 33.6777 53.4102 33.6875 53.3516 33.6875C53.2669 33.6875 53.1725 33.6615 53.0684 33.6094C52.9642 33.5573 52.873 33.4792 52.7949 33.375C52.7103 33.2773 52.6647 33.196 52.6582 33.1309V33.1016C52.6582 33.056 52.6712 32.9974 52.6973 32.9258C52.7233 32.8607 52.7754 32.75 52.8535 32.5938C54.9954 28.6029 57.4141 24.1497 60.1094 19.2344C62.8047 14.319 65.2884 9.90495 67.5605 5.99219ZM69.543 17.291C69.1263 17.7207 68.6055 18.3522 67.9805 19.1855C67.362 20.0189 66.7826 20.8783 66.2422 21.7637C65.7083 22.6491 65.3633 23.3848 65.207 23.9707H65.2168C65.5488 23.9707 66.0501 23.6875 66.7207 23.1211C67.3978 22.5482 68.0456 21.9362 68.6641 21.2852C69.2826 20.6341 69.6699 20.1882 69.8262 19.9473C69.9043 19.8301 69.9466 19.7422 69.9531 19.6836C69.9596 19.6641 69.9629 19.6478 69.9629 19.6348C69.9629 19.6022 69.9499 19.5729 69.9238 19.5469C69.8717 19.4818 69.8164 19.4167 69.7578 19.3516C69.6471 19.2409 69.5592 19.127 69.4941 19.0098C69.4616 18.9447 69.4453 18.8763 69.4453 18.8047C69.4453 18.7396 69.4583 18.6712 69.4844 18.5996C69.5625 18.4499 69.6667 18.3197 69.7969 18.209C69.862 18.1634 69.9238 18.1276 69.9824 18.1016C70.0475 18.069 70.1224 18.0527 70.207 18.0527C70.4089 18.0527 70.5814 18.1243 70.7246 18.2676C70.8743 18.4108 70.985 18.5736 71.0566 18.7559C71.0892 18.8405 71.1055 18.9121 71.1055 18.9707C71.112 19.0293 71.112 19.0781 71.1055 19.1172V19.166C71.1055 19.1725 71.1055 19.179 71.1055 19.1855C71.1055 19.1921 71.112 19.1953 71.125 19.1953C71.1445 19.2018 71.1771 19.2148 71.2227 19.2344C71.5286 19.4036 71.8249 19.4883 72.1113 19.4883C72.248 19.4883 72.4499 19.4525 72.7168 19.3809C72.9902 19.3027 73.2214 19.1628 73.4102 18.9609C73.625 18.7656 73.7878 18.6647 73.8984 18.6582H73.9082C73.9473 18.6582 73.9668 18.6777 73.9668 18.7168C73.9668 18.7689 73.9277 18.86 73.8496 18.9902C73.5892 19.4004 73.2051 19.7259 72.6973 19.9668C72.4173 20.097 72.1016 20.1621 71.75 20.1621C71.4635 20.1621 71.1543 20.1198 70.8223 20.0352L70.793 20.0254C70.7669 20.0254 70.7376 20.0417 70.7051 20.0742C70.679 20.1003 70.6562 20.1393 70.6367 20.1914C70.6172 20.237 70.6074 20.2793 70.6074 20.3184C70.5488 20.5788 70.2656 20.9987 69.7578 21.5781C69.2565 22.151 68.6999 22.724 68.0879 23.2969C67.4824 23.8698 66.9909 24.2799 66.6133 24.5273C66.2487 24.7357 65.9069 24.8398 65.5879 24.8398C65.4577 24.8398 65.2591 24.804 64.9922 24.7324C64.7188 24.6608 64.4844 24.4818 64.2891 24.1953C64.1589 24 64.0938 23.7721 64.0938 23.5117C64.0938 23.4401 64.097 23.3652 64.1035 23.2871C64.1296 22.89 64.25 22.4049 64.4648 21.832C64.7318 21.207 65.2461 20.3346 66.0078 19.2148C66.7695 18.0951 67.4857 17.2617 68.1562 16.7148C68.3711 16.5456 68.5534 16.4577 68.7031 16.4512C68.8138 16.4512 68.957 16.4967 69.1328 16.5879C69.3086 16.6725 69.4453 16.7799 69.543 16.9102C69.5951 16.9753 69.6211 17.0404 69.6211 17.1055C69.6211 17.1641 69.5951 17.2259 69.543 17.291ZM79.5527 13.5508C80.4707 12.099 81.1055 11.1257 81.457 10.6309C81.6849 10.2988 81.89 9.98633 82.0723 9.69336C82.2611 9.40039 82.4889 9.01302 82.7559 8.53125C83.0228 8.04948 83.3939 7.35938 83.8691 6.46094C84.0514 6.10286 84.2077 5.90104 84.3379 5.85547C84.3639 5.84896 84.3932 5.8457 84.4258 5.8457C84.543 5.8457 84.6927 5.91081 84.875 6.04102C84.9271 6.08008 84.9759 6.11589 85.0215 6.14844C85.2298 6.27214 85.3503 6.37956 85.3828 6.4707C85.3893 6.48372 85.3926 6.50326 85.3926 6.5293C85.3926 6.63346 85.3372 6.79948 85.2266 7.02734L75.8711 28.0723C75.793 28.2415 75.7246 28.3978 75.666 28.541C75.4772 29.0358 75.3014 29.3483 75.1387 29.4785C75.0866 29.5176 75.0247 29.5371 74.9531 29.5371C74.8034 29.5371 74.6016 29.446 74.3477 29.2637C74.0938 29.0879 73.9668 28.9023 73.9668 28.707C73.9668 28.694 73.9701 28.6322 73.9766 28.5215C73.9896 28.4108 74.0742 28.209 74.2305 27.916C74.2695 27.8379 74.3086 27.7565 74.3477 27.6719L80.6855 13.8633C80.7441 13.7201 80.7865 13.6159 80.8125 13.5508C80.8451 13.4792 80.8613 13.4401 80.8613 13.4336C80.8483 13.4336 80.8353 13.4434 80.8223 13.4629C80.7962 13.5085 80.7409 13.5996 80.6562 13.7363C80.5781 13.873 80.4577 14.0814 80.2949 14.3613C80.1908 14.5306 80.0768 14.7292 79.9531 14.957C79.6602 15.4909 79.3249 16.0508 78.9473 16.6367C78.4004 17.4635 77.7135 18.4564 76.8867 19.6152C76.0664 20.7676 75.2298 21.8678 74.377 22.916C73.5306 23.9577 72.7982 24.7129 72.1797 25.1816C72.0299 25.2858 71.903 25.3509 71.7988 25.377C71.7077 25.3965 71.623 25.4062 71.5449 25.4062H71.4863C71.0632 25.3542 70.7279 25.1458 70.4805 24.7812C70.3568 24.612 70.2949 24.4167 70.2949 24.1953C70.2949 24.1497 70.2982 24.1074 70.3047 24.0684C70.3372 23.8014 70.4805 23.4368 70.7344 22.9746C71.0273 22.4408 71.3691 21.8776 71.7598 21.2852C72.0983 20.7513 72.4564 20.2272 72.834 19.7129C73.2507 19.1465 73.6901 18.6061 74.1523 18.0918C74.582 17.61 74.9661 17.2487 75.3047 17.0078C75.6562 16.793 75.9492 16.6628 76.1836 16.6172C76.3333 16.5781 76.4701 16.5586 76.5938 16.5586C76.6654 16.5586 76.7337 16.5651 76.7988 16.5781C76.9225 16.6042 77.0397 16.6335 77.1504 16.666C77.2285 16.6921 77.2904 16.7083 77.3359 16.7148C77.3685 16.7214 77.3945 16.7246 77.4141 16.7246C77.4336 16.7246 77.4531 16.7181 77.4727 16.7051C77.4922 16.6921 77.5085 16.6758 77.5215 16.6562C77.528 16.6432 77.5378 16.627 77.5508 16.6074C77.5638 16.5879 77.5833 16.5586 77.6094 16.5195C77.6354 16.4805 77.6712 16.4251 77.7168 16.3535L78.459 15.2305C78.7975 14.7227 79.1621 14.1628 79.5527 13.5508ZM75.998 18.3359C75.627 18.7331 75.2135 19.2311 74.7578 19.8301C74.3086 20.4225 73.8854 21.0117 73.4883 21.5977C73.0716 22.1966 72.7396 22.7012 72.4922 23.1113C72.2643 23.4889 72.1406 23.7266 72.1211 23.8242L72.1113 23.8633C72.1113 23.8698 72.1146 23.873 72.1211 23.873C72.1276 23.873 72.1406 23.8665 72.1602 23.8535C72.1797 23.834 72.2415 23.7656 72.3457 23.6484C72.5605 23.3945 72.9219 22.9421 73.4297 22.291C73.638 22.0111 73.8659 21.7083 74.1133 21.3828C74.4583 20.9271 74.7969 20.4811 75.1289 20.0449C75.2852 19.8496 75.4316 19.6641 75.5684 19.4883C75.9655 18.9805 76.2715 18.5768 76.4863 18.2773C76.6556 18.0039 76.7402 17.8314 76.7402 17.7598C76.7402 17.7337 76.7305 17.7207 76.7109 17.7207H76.6914C76.5807 17.7467 76.3496 17.9518 75.998 18.3359ZM85.2363 19.8691C85.4382 19.6478 85.6823 19.3451 85.9688 18.9609C86.2552 18.5768 86.5026 18.1862 86.7109 17.7891C86.8867 17.4505 86.9746 17.1576 86.9746 16.9102C86.9746 16.8646 86.9714 16.819 86.9648 16.7734C86.9583 16.7539 86.9453 16.7441 86.9258 16.7441C86.9062 16.7376 86.8704 16.7474 86.8184 16.7734C86.7728 16.7995 86.7012 16.8483 86.6035 16.9199C85.653 17.6426 84.7969 18.515 84.0352 19.5371C83.2734 20.5592 82.6842 21.4609 82.2676 22.2422C81.9421 22.8672 81.7793 23.2415 81.7793 23.3652C81.7793 23.3978 81.7891 23.4141 81.8086 23.4141C82.1341 23.2643 82.5117 22.9616 82.9414 22.5059C83.3711 22.0436 83.8138 21.5391 84.2695 20.9922C84.6016 20.5885 84.9238 20.2142 85.2363 19.8691ZM85.0898 16.2461C85.1745 16.1875 85.2461 16.1354 85.3047 16.0898C85.4089 16.0117 85.4935 15.9531 85.5586 15.9141C85.6237 15.8685 85.6855 15.8359 85.7441 15.8164C85.8939 15.7578 86.0371 15.7285 86.1738 15.7285C86.304 15.735 86.4473 15.7741 86.6035 15.8457C86.7207 15.8978 86.8477 15.9661 86.9844 16.0508C87.0365 16.0768 87.0885 16.1061 87.1406 16.1387C87.2122 16.1777 87.2806 16.2135 87.3457 16.2461C87.4629 16.3112 87.5638 16.3698 87.6484 16.4219C87.7721 16.5065 87.834 16.5944 87.834 16.6855V16.6953C87.821 16.7865 87.7559 16.8939 87.6387 17.0176C87.6387 17.0241 87.6354 17.0306 87.6289 17.0371C87.5703 17.1022 87.515 17.1673 87.4629 17.2324C87.4108 17.291 87.375 17.3398 87.3555 17.3789V17.418H87.3848C87.3913 17.418 87.401 17.418 87.4141 17.418C87.4336 17.4115 87.4596 17.4017 87.4922 17.3887H87.502C87.5671 17.3496 87.6517 17.3301 87.7559 17.3301H87.7852C87.8828 17.3301 88.0163 17.3594 88.1855 17.418C88.2767 17.4505 88.3548 17.4831 88.4199 17.5156C88.485 17.5417 88.5632 17.5872 88.6543 17.6523C88.8496 17.776 88.9798 17.9193 89.0449 18.082C89.0775 18.1667 89.0938 18.2643 89.0938 18.375C89.0938 18.5052 89.0742 18.6517 89.0352 18.8145C88.9701 19.1074 88.8626 19.4069 88.7129 19.7129C88.5632 20.0124 88.3971 20.3184 88.2148 20.6309C88.0326 20.9434 87.8633 21.2559 87.707 21.5684C87.5508 21.8809 87.4401 22.1901 87.375 22.4961C87.362 22.5547 87.3555 22.6035 87.3555 22.6426C87.3555 22.6686 87.3587 22.6882 87.3652 22.7012C87.3783 22.7272 87.4043 22.7402 87.4434 22.7402H87.4629C87.6061 22.7077 87.9316 22.5091 88.4395 22.1445C88.9538 21.7799 89.5202 21.36 90.1387 20.8848C90.7637 20.403 91.3105 19.9733 91.7793 19.5957C92.196 19.2702 92.4596 19.0684 92.5703 18.9902C92.5898 18.9707 92.6126 18.9544 92.6387 18.9414C92.86 18.7786 93.0065 18.6842 93.0781 18.6582C93.0977 18.6517 93.1139 18.6484 93.127 18.6484C93.1465 18.6484 93.1595 18.6582 93.166 18.6777C93.1725 18.6842 93.1758 18.694 93.1758 18.707C93.1758 18.7396 93.1595 18.7884 93.127 18.8535C92.9577 19.153 92.4987 19.6868 91.75 20.4551C91.0013 21.2233 90.2266 21.959 89.4258 22.6621C88.6315 23.3652 88.0749 23.7591 87.7559 23.8438H87.6777C87.4173 23.8438 87.1081 23.7526 86.75 23.5703C86.3984 23.3815 86.1576 23.1602 86.0273 22.9062C85.9753 22.763 85.9492 22.6068 85.9492 22.4375C85.9492 22.1901 86.0176 21.8613 86.1543 21.4512C86.291 21.041 86.5156 20.5592 86.8281 20.0059C87.1471 19.4525 87.4564 18.9512 87.7559 18.502C87.4499 18.834 87.0202 19.332 86.4668 19.9961C85.9329 20.6406 85.3568 21.3112 84.7383 22.0078C84.1263 22.7044 83.5469 23.3001 83 23.7949C82.4596 24.2897 82.0234 24.5566 81.6914 24.5957H81.6621C81.4473 24.5957 81.2324 24.5273 81.0176 24.3906C80.6335 24.1758 80.4121 23.9642 80.3535 23.7559C80.3275 23.6452 80.3145 23.528 80.3145 23.4043C80.3145 23.2806 80.3275 23.1471 80.3535 23.0039C80.4902 22.2357 80.8255 21.4089 81.3594 20.5234C81.8997 19.638 82.5117 18.8112 83.1953 18.043C83.8789 17.2682 84.5104 16.6693 85.0898 16.2461ZM98.1074 24.0586C97.3066 25.6667 96.3659 27.3203 95.2852 29.0195C94.2044 30.7188 92.974 32.151 91.5938 33.3164C90.7018 34.0195 89.6602 34.4134 88.4688 34.498C88.3581 34.5046 88.2539 34.5078 88.1562 34.5078C87.1016 34.5078 86.2324 34.0879 85.5488 33.248C85.3145 32.8835 85.194 32.5449 85.1875 32.2324C85.1875 31.946 85.2656 31.7669 85.4219 31.6953C85.4544 31.6693 85.4902 31.6562 85.5293 31.6562C85.5553 31.6562 85.5911 31.666 85.6367 31.6855C85.6758 31.7116 85.7311 31.7897 85.8027 31.9199C85.8743 32.0566 85.9525 32.2259 86.0371 32.4277C86.1283 32.6556 86.2259 32.8704 86.3301 33.0723C86.7207 33.7103 87.2025 34.0293 87.7754 34.0293C87.8861 34.0293 88.153 33.9837 88.5762 33.8926C88.9928 33.8079 89.4779 33.4954 90.0312 32.9551C91.5091 31.4837 92.8145 29.8073 93.9473 27.9258C95.0801 26.0508 96.0957 24.1888 96.9941 22.3398C97.2285 21.8516 97.5052 21.2656 97.8242 20.582C98.1367 19.9049 98.4199 19.2539 98.6738 18.6289C98.9212 18.0169 99.071 17.5645 99.123 17.2715C99.1296 17.2324 99.1328 17.1999 99.1328 17.1738C99.1328 17.0892 99.1068 17.0469 99.0547 17.0469C98.9896 17.0469 98.8822 17.1152 98.7324 17.252C98.127 17.8639 97.4173 18.6322 96.6035 19.5566C95.5553 20.748 94.5039 21.8678 93.4492 22.916C93.332 23.0397 93.2116 23.1667 93.0879 23.2969H93.0781C92.7982 23.6224 92.5117 23.8665 92.2188 24.0293C92.0951 24.1074 91.9616 24.1465 91.8184 24.1465C91.6361 24.1465 91.4408 24.0814 91.2324 23.9512C91.0241 23.8145 90.8743 23.6387 90.7832 23.4238C90.7572 23.3392 90.7441 23.2383 90.7441 23.1211C90.7441 22.8411 90.832 22.4766 91.0078 22.0273C91.2552 21.4089 91.5807 20.7285 91.9844 19.9863C92.0625 19.8496 92.1439 19.7096 92.2285 19.5664C92.2676 19.5013 92.3034 19.4329 92.3359 19.3613C92.4857 19.0944 92.6354 18.8372 92.7852 18.5898C92.8893 18.4076 92.9935 18.2285 93.0977 18.0527C93.1172 18.0267 93.1367 17.9974 93.1562 17.9648C93.4753 17.431 93.7129 17.0176 93.8691 16.7246C93.9342 16.5944 93.9928 16.5065 94.0449 16.4609C94.0905 16.4154 94.1361 16.3893 94.1816 16.3828C94.2207 16.3828 94.2598 16.3926 94.2988 16.4121C94.416 16.4577 94.543 16.5228 94.6797 16.6074C94.8229 16.6986 94.9368 16.7995 95.0215 16.9102C95.0866 16.9883 95.1191 17.0664 95.1191 17.1445C95.1191 17.1836 95.1126 17.2194 95.0996 17.252C94.8717 17.7988 94.5007 18.5736 93.9863 19.5762C93.6348 20.2728 93.3223 20.9108 93.0488 21.4902C92.7754 22.0632 92.6322 22.4342 92.6191 22.6035L93.3223 21.8223C94.0579 20.9889 94.9499 19.9863 95.998 18.8145C97.0462 17.6426 97.821 16.8158 98.3223 16.334C98.472 16.2103 98.6283 16.1484 98.791 16.1484C98.9147 16.1484 99.0384 16.1842 99.1621 16.2559C99.4486 16.4316 99.696 16.6823 99.9043 17.0078C100.119 17.3464 100.246 17.6426 100.285 17.8965C100.298 17.9876 100.305 18.0853 100.305 18.1895C100.305 18.4759 100.256 18.8014 100.158 19.166C99.7871 20.4746 99.1035 22.1055 98.1074 24.0586Z" fill="#4A605E"/>
<path d="M5.94897 44.0126V47.5836C6.23913 47.205 6.43713 46.9464 6.65195 46.6654C6.92039 46.9166 7.06653 47.0538 7.25331 47.2285C7.02097 47.4958 6.80264 47.7463 6.47148 48.127C6.99539 48.127 7.41031 48.1018 7.81962 48.14C7.97137 48.154 8.10909 48.3175 8.25312 48.4126C8.10629 48.5056 7.96576 48.6638 7.81156 48.6782C7.41171 48.7161 7.00625 48.6908 6.43958 48.6908C6.77005 49.0719 6.99889 49.3361 7.25331 49.6294C7.08194 49.809 6.93125 49.9672 6.7676 50.1388C6.52369 49.868 6.31062 49.6315 5.94756 49.2283C5.94756 50.4286 5.95282 51.4608 5.94546 52.4927C5.94161 53.0144 5.93074 53.0144 5.33114 52.9937C5.33114 51.7962 5.33885 50.5483 5.33885 49.2161C5.02205 49.5536 4.77604 49.8557 4.47886 50.1721C4.32537 49.9943 4.19466 49.8427 4.03485 49.6574C4.28507 49.3641 4.52442 49.0831 4.85804 48.6919C4.32222 48.6919 3.91711 48.7189 3.5183 48.6796C3.33888 48.6621 3.17242 48.5123 3 48.4224C3.16366 48.3235 3.31995 48.1579 3.49202 48.1397C3.89082 48.0972 4.29698 48.1263 4.84578 48.1263C4.52407 47.7786 4.30189 47.5383 4.03976 47.2545C4.18379 47.0955 4.32677 46.9383 4.52828 46.7162C4.83316 47.0482 5.09424 47.3222 5.34481 47.5748C5.29539 47.5958 5.39422 47.5537 5.34481 47.5748C5.34481 46.5598 5.33184 45.4605 5.33885 44.4455C5.342 43.9796 5.35287 43.9796 5.94862 44.0122L5.94897 44.0126Z" fill="#4A605E"/>
<path d="M35.3682 48.2046C35.4621 48.4369 35.5359 48.6201 35.6075 48.7974C34.3734 49.5857 32.8377 49.7394 31.665 50.9728C32.681 50.7355 33.5103 50.5418 34.385 50.3375C34.4423 50.5818 34.4872 50.7731 34.5241 50.931C31.1379 51.7313 30.4927 52.031 28.5874 52.9783C28.5807 52.9032 28.594 53.0534 28.5874 52.9783C28.4876 52.8386 28.3878 52.6986 28.2532 52.5101C28.5441 52.3529 28.7972 52.209 29.0558 52.0773C29.8788 51.6578 30.2008 51.0013 30.0218 50.108C29.9101 49.5467 29.8085 48.9834 29.7042 48.4208C29.6961 48.3769 29.7031 48.3306 29.7031 48.2179C29.9009 48.134 30.1209 48.041 30.4291 47.9104C30.614 48.8914 30.7886 49.8159 30.9745 50.8012C31.509 50.4716 31.7462 50.1266 31.6032 49.4972C31.3815 48.5198 31.2602 47.5194 31.0915 46.5005C31.2999 46.4086 31.4813 46.3285 31.7392 46.2145C31.9156 47.2499 32.0825 48.2312 32.2498 49.2126C32.3253 49.2221 32.4009 49.2319 32.4765 49.2414C32.5531 48.6984 32.6957 48.1544 32.6887 47.6121C32.6813 47.0456 32.5401 46.4795 32.4378 45.9165C32.3665 45.5244 32.461 45.291 32.947 45.3065C33.0204 45.7403 33.0946 46.1762 33.1684 46.6125C33.2056 46.6128 33.2425 46.6132 33.2798 46.6135C33.3578 45.8951 33.433 45.1766 33.5145 44.4588C33.5718 43.9527 33.5753 43.9531 34.1994 44.0503C34.0814 45.031 33.9629 46.0148 33.8312 47.1098C34.3403 46.7673 34.7533 46.4893 35.2111 46.1811C35.3278 46.3121 35.4389 46.437 35.5657 46.5799C34.7469 47.4549 33.2998 47.69 33.1287 49.233C33.8877 48.8841 34.6127 48.551 35.3686 48.2039L35.3682 48.2046Z" fill="#4A605E"/>
<path d="M55.6075 46.6962V45.8186H58.1892V44H59.0494V45.7715H61.6598C61.6749 46.0912 61.6861 46.3322 61.7012 46.6555H59.0789V52.9614C58.7724 52.9755 58.546 52.9858 58.2367 53V46.6962H55.6075Z" fill="#4A605E"/>
<path d="M89.1452 52.7698C88.5904 52.7698 88.0296 52.8189 87.4816 52.7591C86.4842 52.6502 85.4687 52.5679 84.5067 52.3114C82.4838 51.7718 81.5056 50.1477 81.7337 47.9137C81.9298 45.9906 83.4157 44.5366 85.4109 44.3914C85.9468 44.3523 86.4955 44.511 87.0404 44.55C87.2766 44.567 87.5419 44.5656 87.754 44.4792C90.194 43.4828 92.8093 45.4008 92.6177 47.6939C92.5 49.104 92.5801 50.5321 92.6167 51.9509C92.6323 52.5628 92.4202 52.8131 91.7806 52.7892C90.9035 52.7564 90.0238 52.7809 89.1452 52.7809V52.7695V52.7698ZM85.9759 51.9813C87.9622 51.9723 89.6208 50.3779 89.6272 48.471C89.6336 46.5714 87.8991 44.9199 85.9085 44.9303C83.9122 44.9407 82.2689 46.6232 82.2934 48.6318C82.3147 50.3713 84.0942 51.9899 85.9759 51.9813Z" fill="#4A605E"/>
</svg>
